<svg width="250" height="80" viewBox="0 0 250 80" fill="none" xmlns="http://www.w3.org/2000/svg">
<rect y="0.660156" width="250" height="79" rx="10" fill="white"/>
<path d="M30 19.6602C27.4288 19.6602 24.9154 20.4226 22.7776 21.8511C20.6398 23.2795 18.9735 25.3098 17.9896 27.6853C17.0056 30.0607 16.7482 32.6746 17.2498 35.1963C17.7514 37.7181 18.9895 40.0345 20.8076 41.8525C22.6257 43.6706 24.9421 44.9088 27.4638 45.4104C29.9856 45.912 32.5994 45.6545 34.9749 44.6706C37.3503 43.6866 39.3806 42.0204 40.8091 39.8826C42.2376 37.7447 43 35.2313 43 32.6602C42.9934 29.2144 41.6216 25.9116 39.1851 23.4751C36.7485 21.0385 33.4458 19.6668 30 19.6602ZM36.1875 30.3852L28.8625 37.3852C28.6731 37.5633 28.4225 37.6618 28.1625 37.6602C28.0354 37.662 27.9092 37.6386 27.7913 37.5914C27.6733 37.5442 27.5658 37.4741 27.475 37.3852L23.8125 33.8852C23.7109 33.7965 23.6283 33.6883 23.5696 33.5669C23.5109 33.4455 23.4774 33.3135 23.471 33.1789C23.4647 33.0442 23.4856 32.9097 23.5325 32.7833C23.5795 32.6569 23.6515 32.5414 23.7443 32.4435C23.8371 32.3457 23.9486 32.2677 24.0723 32.2141C24.196 32.1605 24.3293 32.1324 24.4641 32.1316C24.5989 32.1309 24.7325 32.1573 24.8568 32.2095C24.9811 32.2617 25.0936 32.3384 25.1875 32.4352L28.1625 35.2727L34.8125 28.9352C35.0069 28.7655 35.2594 28.6776 35.5172 28.6898C35.7749 28.702 36.018 28.8133 36.1955 29.0006C36.3731 29.1878 36.4714 29.4365 36.4699 29.6945C36.4684 29.9525 36.3672 30.2 36.1875 30.3852Z" fill="#3FCD78"/>
<rect x="54" y="20.6602" width="166" height="13" rx="6.5" fill="#FFE4D0"/>
<rect x="54" y="41.6602" width="108" height="13" rx="6.5" fill="#FEDBD5"/>
</svg>
