<svg width="405" height="299" viewBox="0 0 405 299" fill="none" xmlns="http://www.w3.org/2000/svg">
<g filter="url(#filter0_i_15_1296)">
<rect width="160.383" height="83.453" rx="13.6921" transform="matrix(0.99993 0.0117992 -0.013219 0.999913 29.3207 55.0858)" fill="url(#paint0_linear_15_1296)" fill-opacity="0.93"/>
</g>
<path d="M54.0473 68.7002L52.9503 135.718M115.468 69.6531L114.371 136.671M85.23 69.184L84.133 136.202M146.336 70.1319L145.239 137.15M69.166 68.9348L68.069 135.953M130.902 69.8925L129.805 136.911M100.349 69.4185L99.2517 136.437M161.769 70.3714L160.672 137.39M40.3914 123.653L176.146 125.759M40.8605 94.9886L176.615 97.0946M40.6223 109.523L176.377 111.629M41.0982 80.4546L176.853 82.5605" stroke="url(#paint1_linear_15_1296)" stroke-width="0.36362"/>
<path d="M42.7877 72.6025L42.3948 75.4527L41.3115 75.4293L42.1906 70.1019L44.2453 73.4342L46.4512 70.194L47.0844 75.5541L46.0011 75.5307L45.7396 72.6663L44.2088 75.0191L42.7877 72.6025ZM48.6876 74.5486C48.6854 74.6455 48.7077 74.7309 48.7545 74.8046C48.8014 74.8735 48.8656 74.9283 48.9471 74.9688C49.0335 75.0046 49.1277 75.0236 49.2295 75.0258C49.3749 75.029 49.5064 75.0027 49.6241 74.9471C49.7419 74.8866 49.8384 74.8014 49.9137 74.6915C49.9891 74.5767 50.0286 74.4394 50.0323 74.2794L50.1386 74.7182C50.1337 74.9314 50.0689 75.1095 49.9444 75.2522C49.8247 75.3951 49.6695 75.5009 49.4788 75.5695C49.293 75.6382 49.0982 75.6704 48.8947 75.666C48.6862 75.6615 48.4933 75.6161 48.3159 75.5298C48.1384 75.4436 47.9957 75.3217 47.8878 75.1641C47.7849 75.0019 47.736 74.8069 47.7412 74.579C47.7487 74.2543 47.8685 73.9999 48.1007 73.8158C48.3329 73.6317 48.6574 73.5441 49.0742 73.5531C49.2875 73.5577 49.4736 73.5836 49.6326 73.6307C49.7964 73.6778 49.9333 73.7341 50.0433 73.7996C50.1533 73.865 50.2319 73.9273 50.2791 73.9865L50.269 74.4227C50.1404 74.323 49.9942 74.2471 49.8305 74.195C49.6717 74.1431 49.5026 74.1152 49.3233 74.1113C49.1778 74.1082 49.0586 74.125 48.9656 74.1618C48.8728 74.1937 48.8037 74.2432 48.7586 74.3101C48.7135 74.3721 48.6898 74.4516 48.6876 74.5486ZM48.3553 73.1811L48.0211 72.5338C48.1977 72.4455 48.413 72.3628 48.6669 72.2859C48.921 72.2041 49.2031 72.1666 49.5133 72.1733C49.7993 72.1794 50.0528 72.2261 50.2739 72.3134C50.495 72.4006 50.6667 72.5255 50.789 72.6882C50.9115 72.846 50.9701 73.0388 50.9649 73.2667L50.9103 75.6368L50.0015 75.6172L50.0515 73.4433C50.0536 73.3512 50.0409 73.2734 50.0132 73.2097C49.9857 73.1412 49.9409 73.0845 49.8789 73.0395C49.8218 72.9946 49.7522 72.9616 49.6703 72.9404C49.5883 72.9193 49.4964 72.9076 49.3946 72.9054C49.2395 72.902 49.0913 72.9158 48.95 72.9467C48.8086 72.9776 48.6865 73.0162 48.5836 73.0624C48.4807 73.1087 48.4046 73.1483 48.3553 73.1811ZM52.9684 72.3352L52.8915 75.6797L51.9681 75.6597L52.0451 72.3153L52.9684 72.3352ZM53.9274 73.338C53.8657 73.2784 53.8013 73.2334 53.7341 73.2029C53.6719 73.1676 53.5923 73.1489 53.4953 73.1468C53.379 73.1443 53.2789 73.1736 53.1951 73.2349C53.1112 73.2961 53.0461 73.3844 52.9998 73.4998C52.9585 73.6104 52.936 73.7457 52.9323 73.9057L52.6766 73.6383C52.6827 73.3717 52.739 73.1377 52.8455 72.9363C52.9521 72.7301 53.0892 72.5682 53.2568 72.4506C53.4245 72.3281 53.5956 72.2688 53.77 72.2726C53.8912 72.2752 54.0046 72.2994 54.1103 72.3454C54.2207 72.3914 54.3089 72.4588 54.3748 72.5475L53.9274 73.338ZM55.0916 70.0534L56.0004 70.0731L55.8699 75.7441L54.9611 75.7244L55.0916 70.0534ZM57.1756 72.4262L58.3026 72.4506L56.8312 73.8008L58.371 75.7981L57.2514 75.7739L55.7042 73.7765L57.1756 72.4262ZM60.5181 75.9173C60.1546 75.9094 59.8387 75.8298 59.5706 75.6786C59.3025 75.5273 59.0963 75.3216 58.952 75.0614C58.8126 74.7966 58.747 74.4872 58.7551 74.1334C58.7634 73.7747 58.8431 73.4685 58.9945 73.2147C59.1507 72.9563 59.3662 72.7597 59.6409 72.625C59.9157 72.4854 60.2373 72.4196 60.6057 72.4276C60.974 72.4356 61.2851 72.5102 61.5389 72.6515C61.7976 72.788 61.9919 72.9862 62.1217 73.246C62.2516 73.501 62.3125 73.8078 62.3042 74.1665C62.3032 74.2101 62.2997 74.2561 62.2938 74.3044C62.2926 74.3529 62.2893 74.3916 62.2838 74.4206L59.2883 74.3559L59.3017 73.7742L61.4756 73.8212L61.2134 74.1502C61.2335 74.1215 61.2514 74.0831 61.267 74.0349C61.2876 73.982 61.2983 73.9386 61.2991 73.9047C61.3029 73.7399 61.2746 73.5986 61.2143 73.481C61.1588 73.3634 61.0761 73.2694 60.9662 73.1992C60.8562 73.1289 60.7262 73.0921 60.5759 73.0889C60.3917 73.0849 60.2356 73.1228 60.1077 73.2024C59.9848 73.2774 59.8875 73.3941 59.816 73.5526C59.7494 73.7063 59.711 73.8995 59.7008 74.132C59.6957 74.355 59.7228 74.5447 59.7823 74.7011C59.8466 74.8577 59.9432 74.9786 60.0722 75.0638C60.2011 75.1491 60.3577 75.1937 60.5419 75.1977C60.7503 75.2022 60.9282 75.1672 61.0754 75.0928C61.2275 75.0137 61.3539 74.8951 61.4545 74.7373L62.2703 75.0095C62.0885 75.3208 61.8504 75.5533 61.5559 75.7069C61.2663 75.8559 60.9204 75.926 60.5181 75.9173ZM62.8047 72.5479L64.8696 72.5925L64.8514 73.385L62.7865 73.3404L62.8047 72.5479ZM63.4059 71.397L64.3147 71.4167L64.211 75.9244L63.3022 75.9047L63.4059 71.397ZM65.5388 71.3122C65.5424 71.1571 65.601 71.0323 65.7147 70.9377C65.8286 70.8384 65.963 70.7904 66.1181 70.7937C66.2733 70.7971 66.403 70.8508 66.5072 70.9549C66.6165 71.0542 66.6693 71.1815 66.6658 71.3366C66.6623 71.4868 66.6037 71.6116 66.4899 71.711C66.3809 71.8105 66.2488 71.8586 66.0937 71.8552C65.9386 71.8519 65.8065 71.7981 65.6973 71.6939C65.5882 71.5897 65.5354 71.4625 65.5388 71.3122ZM65.6108 72.6085L66.5269 72.6284L66.45 75.9728L65.5339 75.953L65.6108 72.6085ZM69.8376 74.0093C69.8427 73.7863 69.803 73.6157 69.7184 73.4975C69.6339 73.3793 69.4946 73.3181 69.3008 73.3139C69.1699 73.3111 69.0529 73.3376 68.9498 73.3936C68.8467 73.4447 68.7674 73.5206 68.7117 73.6212C68.6561 73.7218 68.6266 73.8424 68.6234 73.983L68.5766 76.0187L67.6314 75.9983L67.7083 72.6539L68.6535 72.6743L68.6418 73.1833C68.7479 72.9964 68.8845 72.8563 69.0516 72.7629C69.2235 72.6648 69.4283 72.6183 69.6658 72.6235C70.0633 72.6321 70.3563 72.7524 70.545 72.9844C70.7337 73.2115 70.8235 73.5262 70.8142 73.9285L70.765 76.0661L69.7908 76.045L69.8376 74.0093ZM71.7092 76.3192L72.6326 76.3392C72.6341 76.4847 72.67 76.6092 72.7404 76.7125C72.8106 76.8207 72.9081 76.9053 73.0328 76.9661C73.1575 77.027 73.3046 77.0593 73.4743 77.063C73.6294 77.0663 73.7757 77.0331 73.913 76.9634C74.0553 76.8937 74.1693 76.7846 74.2552 76.6361C74.3459 76.4878 74.3939 76.2997 74.3991 76.0719L74.4744 72.8002L75.3832 72.8198L75.308 76.0915C75.2985 76.5035 75.2083 76.841 75.0373 77.104C74.8712 77.3672 74.6511 77.5564 74.3769 77.6717C74.1025 77.7919 73.8054 77.8485 73.4855 77.8416C73.0977 77.8332 72.7744 77.7631 72.5155 77.6315C72.2566 77.5046 72.0595 77.3258 71.9241 77.0949C71.7935 76.869 71.7219 76.6105 71.7092 76.3192ZM71.6883 74.3839C71.6968 74.0107 71.7792 73.6997 71.9352 73.4509C72.0914 73.1972 72.2946 73.0076 72.5448 72.8821C72.795 72.7566 73.0583 72.6968 73.3346 72.7028C73.6157 72.7089 73.8613 72.7821 74.0715 72.9224C74.2865 73.0628 74.4516 73.2628 74.5669 73.5223C74.6871 73.7771 74.743 74.0862 74.7347 74.4497C74.7264 74.8084 74.6563 75.1148 74.5244 75.369C74.3973 75.6233 74.2231 75.8159 74.0019 75.9469C73.7856 76.0732 73.5369 76.1333 73.2558 76.1272C72.9795 76.1212 72.7192 76.0501 72.4751 75.9139C72.2309 75.7777 72.0365 75.5819 71.8921 75.3266C71.7477 75.0665 71.6798 74.7522 71.6883 74.3839ZM72.6625 74.4049C72.658 74.6037 72.6953 74.7742 72.7744 74.9165C72.8537 75.054 72.9628 75.1607 73.1017 75.2364C73.2406 75.3121 73.39 75.3517 73.55 75.3552C73.6905 75.3582 73.827 75.3273 73.9595 75.2622C74.0969 75.1925 74.2083 75.0906 74.2938 74.9567C74.3843 74.818 74.4319 74.6469 74.4366 74.4433C74.4402 74.2882 74.419 74.1519 74.3732 74.0346C74.3274 73.9172 74.2618 73.8188 74.1764 73.7393C74.0957 73.66 74.005 73.5999 73.9041 73.5589C73.8033 73.5131 73.6996 73.489 73.5929 73.4867C73.433 73.4832 73.2819 73.5163 73.1397 73.586C72.9974 73.6557 72.8835 73.7599 72.7978 73.8987C72.7123 74.0326 72.6672 74.2014 72.6625 74.4049ZM78.957 75.0866C79.0946 75.2205 79.223 75.3299 79.3423 75.415C79.4617 75.4951 79.5743 75.5558 79.68 75.5968C79.7906 75.638 79.8944 75.6597 79.9913 75.6618C80.1173 75.6645 80.2149 75.6399 80.284 75.5881C80.3532 75.5314 80.3889 75.4546 80.3911 75.3576C80.3931 75.2704 80.3657 75.197 80.3089 75.1376C80.257 75.0735 80.1783 75.016 80.0728 74.9652C79.9673 74.9144 79.8327 74.8606 79.6692 74.8037C79.5154 74.7422 79.3667 74.6711 79.2231 74.5904C79.0795 74.5049 78.9608 74.3956 78.8669 74.2626C78.7779 74.1249 78.7358 73.9519 78.7406 73.7435C78.7452 73.5447 78.8024 73.3787 78.9121 73.2453C79.022 73.107 79.1674 73.0059 79.3483 72.9419C79.5341 72.8732 79.7386 72.8412 79.9615 72.846C80.1506 72.8501 80.3269 72.8782 80.4906 72.9302C80.6543 72.9823 80.8055 73.051 80.9442 73.1364C81.0829 73.217 81.2044 73.3118 81.3086 73.4207L80.8808 73.9934C80.7626 73.8599 80.6197 73.7501 80.4519 73.6641C80.289 73.5781 80.1276 73.5334 79.9676 73.5299C79.861 73.5276 79.7757 73.5476 79.7116 73.5899C79.6526 73.6274 79.6221 73.6873 79.6202 73.7697C79.6185 73.8425 79.6461 73.9085 79.7029 73.9679C79.7647 74.0226 79.8509 74.073 79.9613 74.119C80.0767 74.1651 80.2063 74.2213 80.3503 74.2874C80.5281 74.3592 80.6911 74.4403 80.8393 74.5308C80.9925 74.6165 81.1137 74.7234 81.2029 74.8514C81.2921 74.9794 81.3344 75.1452 81.3297 75.3488C81.322 75.6833 81.2069 75.9426 80.9845 76.127C80.7621 76.3064 80.4595 76.392 80.0765 76.3837C79.839 76.3786 79.6216 76.3424 79.4243 76.2751C79.2319 76.2079 79.0569 76.1217 78.8993 76.0164C78.7466 75.9064 78.6087 75.7895 78.4854 75.6656L78.957 75.0866ZM81.7881 72.9583L83.853 73.0029L83.8347 73.7954L81.7699 73.7508L81.7881 72.9583ZM82.3892 71.8074L83.2981 71.8271L83.1944 76.3348L82.2855 76.3151L82.3892 71.8074ZM85.4594 73.0376L85.3825 76.3821L84.4591 76.3621L84.536 73.0177L85.4594 73.0376ZM86.4184 74.0404C86.3567 73.9808 86.2923 73.9358 86.2251 73.9053C86.1628 73.87 86.0833 73.8513 85.9863 73.8492C85.87 73.8467 85.7699 73.876 85.686 73.9372C85.6022 73.9985 85.5371 74.0868 85.4908 74.2022C85.4495 74.3128 85.427 74.4481 85.4233 74.6081L85.1676 74.3407C85.1737 74.0741 85.23 73.8401 85.3365 73.6387C85.443 73.4325 85.5801 73.2706 85.7477 73.153C85.9154 73.0305 86.0865 72.9712 86.261 72.975C86.3822 72.9776 86.4956 73.0018 86.6012 73.0478C86.7117 73.0938 86.7999 73.1612 86.8657 73.2499L86.4184 74.0404ZM88.1667 75.4021C88.1645 75.499 88.1867 75.5843 88.2335 75.6581C88.2805 75.727 88.3447 75.7817 88.4262 75.8223C88.5126 75.8581 88.6068 75.8771 88.7086 75.8793C88.854 75.8825 88.9855 75.8562 89.1032 75.8006C89.221 75.7401 89.3175 75.6549 89.3928 75.5449C89.4681 75.4302 89.5077 75.2928 89.5114 75.1329L89.6177 75.5716C89.6127 75.7849 89.548 75.9629 89.4235 76.1057C89.3038 76.2486 89.1486 76.3544 88.9579 76.423C88.7721 76.4917 88.5773 76.5239 88.3738 76.5195C88.1653 76.515 87.9724 76.4696 87.7949 76.3833C87.6175 76.297 87.4748 76.1751 87.3669 76.0176C87.2639 75.8554 87.2151 75.6603 87.2203 75.4325C87.2278 75.1078 87.3476 74.8533 87.5798 74.6692C87.8119 74.4851 88.1365 74.3976 88.5533 74.4066C88.7666 74.4112 88.9527 74.437 89.1116 74.4841C89.2754 74.5313 89.4124 74.5876 89.5224 74.653C89.6324 74.7185 89.711 74.7808 89.7582 74.84L89.7481 75.2762C89.6195 75.1764 89.4733 75.1005 89.3096 75.0485C89.1508 74.9966 88.9817 74.9687 88.8023 74.9648C88.6569 74.9617 88.5377 74.9785 88.4447 75.0153C88.3519 75.0472 88.2828 75.0966 88.2376 75.1635C88.1926 75.2256 88.1689 75.3051 88.1667 75.4021ZM87.8344 74.0346L87.5002 73.3873C87.6768 73.2989 87.8921 73.2163 88.146 73.1394C88.4001 73.0576 88.6822 73.02 88.9924 73.0267C89.2784 73.0329 89.5319 73.0796 89.753 73.1668C89.9741 73.254 90.1458 73.379 90.2681 73.5417C90.3906 73.6995 90.4492 73.8923 90.444 74.1201L90.3894 76.4903L89.4806 76.4707L89.5306 74.2968C89.5327 74.2047 89.52 74.1268 89.4923 74.0632C89.4648 73.9947 89.42 73.938 89.358 73.893C89.3009 73.8481 89.2313 73.8151 89.1494 73.7939C89.0674 73.7727 88.9755 73.761 88.8737 73.7588C88.7186 73.7555 88.5704 73.7693 88.4291 73.8001C88.2877 73.831 88.1656 73.8696 88.0627 73.9159C87.9598 73.9622 87.8837 74.0017 87.8344 74.0346ZM91.0952 73.1595L93.1601 73.2041L93.1418 73.9966L91.0769 73.952L91.0952 73.1595ZM91.6963 72.0086L92.6052 72.0283L92.5014 76.536L91.5926 76.5163L91.6963 72.0086ZM95.3422 76.6701C94.9787 76.6623 94.6629 76.5827 94.3948 76.4314C94.1267 76.2801 93.9205 76.0744 93.7761 75.8143C93.6367 75.5494 93.5711 75.24 93.5792 74.8862C93.5875 74.5275 93.6673 74.2213 93.8186 73.9676C93.9749 73.7091 94.1904 73.5125 94.465 73.3778C94.7398 73.2383 95.0614 73.1725 95.4298 73.1804C95.7982 73.1884 96.1093 73.263 96.363 73.4043C96.6218 73.5408 96.816 73.739 96.9458 73.9988C97.0758 74.2538 97.1366 74.5606 97.1283 74.9193C97.1273 74.9629 97.1239 75.0089 97.1179 75.0573C97.1168 75.1057 97.1135 75.1445 97.1079 75.1734L94.1124 75.1087L94.1258 74.5271L96.2997 74.574L96.0376 74.903C96.0576 74.8743 96.0755 74.8359 96.0911 74.7878C96.1118 74.7349 96.1225 74.6915 96.1232 74.6575C96.127 74.4927 96.0988 74.3515 96.0384 74.2338C95.9829 74.1162 95.9002 74.0223 95.7903 73.952C95.6804 73.8817 95.5503 73.845 95.4 73.8417C95.2158 73.8378 95.0598 73.8756 94.9319 73.9553C94.8089 74.0302 94.7116 74.1469 94.6401 74.3054C94.5735 74.4591 94.5351 74.6523 94.5249 74.8848C94.5198 75.1078 94.547 75.2975 94.6064 75.454C94.6707 75.6105 94.7673 75.7314 94.8963 75.8167C95.0253 75.9019 95.1819 75.9465 95.3661 75.9505C95.5745 75.955 95.7523 75.92 95.8995 75.8456C96.0516 75.7665 96.178 75.648 96.2787 75.4901L97.0944 75.7624C96.9127 76.0736 96.6745 76.3061 96.38 76.4598C96.0905 76.6087 95.7445 76.6788 95.3422 76.6701ZM97.8156 76.8836L98.739 76.9036C98.7405 77.0491 98.7764 77.1735 98.8468 77.2769C98.917 77.3851 99.0145 77.4696 99.1392 77.5305C99.2639 77.5914 99.411 77.6237 99.5807 77.6274C99.7358 77.6307 99.882 77.5975 100.019 77.5277C100.162 77.4581 100.276 77.349 100.362 77.2005C100.452 77.0521 100.5 76.8641 100.505 76.6362L100.581 73.3645L101.49 73.3842L101.414 76.6559C101.405 77.0679 101.315 77.4054 101.144 77.6684C100.978 77.9315 100.757 78.1208 100.483 78.2361C100.209 78.3562 99.9118 78.4128 99.5919 78.4059C99.2041 78.3975 98.8808 78.3275 98.6219 78.1958C98.363 78.069 98.1658 77.8902 98.0305 77.6593C97.8999 77.4334 97.8283 77.1748 97.8156 76.8836ZM97.7946 74.9482C97.8032 74.575 97.8856 74.264 98.0416 74.0152C98.1978 73.7616 98.401 73.572 98.6512 73.4465C98.9014 73.321 99.1647 73.2612 99.4409 73.2672C99.7221 73.2732 99.9677 73.3464 100.178 73.4868C100.393 73.6272 100.558 73.8272 100.673 74.0867C100.794 74.3414 100.849 74.6506 100.841 75.0141C100.833 75.3728 100.763 75.6792 100.631 75.9334C100.504 76.1876 100.33 76.3803 100.108 76.5113C99.892 76.6375 99.6433 76.6976 99.3622 76.6915C99.0859 76.6856 98.8256 76.6145 98.5814 76.4783C98.3372 76.3421 98.1429 76.1463 97.9985 75.891C97.8541 75.6309 97.7862 75.3166 97.7946 74.9482ZM98.7689 74.9693C98.7643 75.168 98.8016 75.3386 98.8808 75.4809C98.9601 75.6184 99.0692 75.725 99.2081 75.8008C99.347 75.8765 99.4964 75.9161 99.6563 75.9196C99.7969 75.9226 99.9334 75.8916 100.066 75.8266C100.203 75.7568 100.315 75.655 100.4 75.521C100.491 75.3824 100.538 75.2112 100.543 75.0077C100.547 74.8526 100.525 74.7163 100.48 74.5989C100.434 74.4816 100.368 74.3832 100.283 74.3037C100.202 74.2244 100.111 74.1642 100.01 74.1233C99.9097 74.0774 99.806 74.0534 99.6993 74.0511C99.5394 74.0476 99.3883 74.0807 99.246 74.1504C99.1038 74.22 98.9899 74.3243 98.9042 74.463C98.8187 74.597 98.7736 74.7657 98.7689 74.9693ZM105.77 73.4767L103.475 78.3735L102.508 78.3526L103.395 76.4369L102.076 73.3969L103.123 73.4195L104.138 76.1038L103.673 76.0791L104.788 73.4555L105.77 73.4767Z" fill="#353E6C"/>
<path d="M157.109 74.8697L158.338 74.5762L158.244 78.6623L159.255 78.6841L159.374 73.5075L157.131 73.9318L157.109 74.8697ZM164.514 77.1539C164.522 76.8049 164.456 76.5052 164.317 76.2549C164.182 75.9998 164 75.8019 163.77 75.6611C163.541 75.5204 163.288 75.447 163.011 75.4411C162.861 75.4378 162.713 75.4492 162.567 75.4751C162.426 75.4963 162.291 75.5395 162.164 75.6046L162.493 74.5642L164.493 74.6075L164.514 73.7059L161.743 73.646L160.979 76.4955C161.156 76.4024 161.323 76.3332 161.479 76.2881C161.64 76.2382 161.796 76.2052 161.947 76.1891C162.098 76.1681 162.241 76.1591 162.377 76.162C162.561 76.166 162.73 76.2036 162.883 76.2748C163.042 76.3413 163.166 76.4385 163.255 76.5665C163.349 76.6946 163.394 76.8508 163.389 77.035C163.385 77.224 163.34 77.3831 163.255 77.5122C163.169 77.6364 163.048 77.7308 162.892 77.7953C162.74 77.8599 162.555 77.8898 162.337 77.8851C162.196 77.8821 162.049 77.8522 161.895 77.7956C161.741 77.734 161.593 77.6532 161.45 77.5532C161.311 77.4532 161.183 77.3413 161.065 77.2175L160.559 78.014C160.696 78.1576 160.856 78.292 161.037 78.4171C161.219 78.5374 161.43 78.6366 161.67 78.7145C161.916 78.7926 162.194 78.8349 162.504 78.8416C162.751 78.847 162.992 78.8182 163.226 78.7554C163.46 78.6926 163.674 78.5929 163.866 78.4565C164.058 78.32 164.213 78.1439 164.329 77.9282C164.446 77.7125 164.507 77.4544 164.514 77.1539ZM165.229 74.8925C165.224 75.1252 165.274 75.3421 165.381 75.5432C165.493 75.7396 165.647 75.8981 165.843 76.0187C166.039 76.1394 166.261 76.2023 166.508 76.2077C166.76 76.2131 166.985 76.1598 167.181 76.0477C167.383 75.9356 167.541 75.7839 167.657 75.5924C167.773 75.3961 167.834 75.1816 167.839 74.949C167.845 74.7066 167.794 74.4873 167.687 74.291C167.58 74.0947 167.428 73.9387 167.232 73.8229C167.041 73.7024 166.819 73.6394 166.567 73.6339C166.32 73.6286 166.096 73.6819 165.894 73.794C165.693 73.9012 165.532 74.0504 165.411 74.2418C165.295 74.4333 165.235 74.6502 165.229 74.8925ZM166.014 74.9095C166.017 74.8077 166.041 74.7161 166.086 74.6346C166.132 74.5532 166.194 74.4891 166.272 74.4423C166.351 74.3906 166.444 74.366 166.55 74.3683C166.657 74.3706 166.746 74.3992 166.818 74.4541C166.894 74.5042 166.953 74.5709 166.995 74.6543C167.037 74.7376 167.056 74.8302 167.054 74.932C167.052 75.0289 167.028 75.1205 166.982 75.2068C166.937 75.2883 166.875 75.3524 166.796 75.3992C166.722 75.4461 166.632 75.4684 166.525 75.4661C166.419 75.4638 166.327 75.4376 166.251 75.3874C166.174 75.3373 166.115 75.2705 166.073 75.1872C166.032 75.099 166.012 75.0064 166.014 74.9095ZM168.474 77.7123C168.469 77.9498 168.519 78.1667 168.626 78.363C168.738 78.5594 168.892 78.7179 169.088 78.8385C169.284 78.9591 169.506 79.0221 169.753 79.0275C170.005 79.0329 170.229 78.9796 170.426 78.8674C170.627 78.7554 170.786 78.6036 170.902 78.4122C171.018 78.2207 171.079 78.0062 171.084 77.7687C171.09 77.5312 171.039 77.3143 170.932 77.118C170.825 76.9169 170.673 76.7584 170.477 76.6427C170.286 76.5221 170.064 76.4591 169.812 76.4537C169.565 76.4484 169.341 76.5017 169.139 76.6137C168.938 76.7209 168.777 76.8726 168.656 77.0688C168.54 77.2603 168.479 77.4748 168.474 77.7123ZM169.259 77.7293C169.262 77.6275 169.286 77.5359 169.331 77.4544C169.377 77.3729 169.439 77.3088 169.517 77.262C169.596 77.2152 169.689 77.193 169.795 77.1953C169.902 77.1976 169.991 77.2238 170.063 77.2738C170.139 77.324 170.198 77.3907 170.24 77.474C170.282 77.5574 170.301 77.6499 170.299 77.7517C170.297 77.8487 170.273 77.9403 170.227 78.0266C170.182 78.1081 170.12 78.1722 170.041 78.219C169.967 78.2659 169.877 78.2882 169.77 78.2859C169.664 78.2836 169.572 78.2573 169.496 78.2072C169.419 78.157 169.36 78.0903 169.318 78.007C169.277 77.9188 169.257 77.8262 169.259 77.7293ZM169.597 73.8158L165.771 78.825L166.724 78.8456L170.549 73.8364L169.597 73.8158Z" fill="#45B751"/>
<path d="M175.565 73.8855L177.964 76.9023L173.152 76.8976L175.565 73.8855Z" fill="#45B751"/>
<path d="M69.7568 101.077C58.2281 94.4254 45.1729 96.9209 40.0864 99.0001L39.7335 121.009L175.397 123.845L175.625 109.623C172.724 104.481 163.583 95.9105 150.226 102.76C133.531 111.321 123.358 107.354 115.467 100.576C109.155 95.1538 100.937 98.5163 97.6178 100.875C93.1344 103.714 81.2855 107.729 69.7568 101.077Z" fill="url(#paint2_linear_15_1296)"/>
<path d="M40.0864 98.9961C45.1612 96.9198 58.1863 94.4278 69.6883 101.07C81.1902 107.712 93.0118 103.702 97.4848 100.867C100.797 98.5119 108.995 95.1542 115.293 100.568C123.165 107.336 133.315 111.297 149.972 102.748C163.297 95.9088 172.417 104.467 175.311 109.601" stroke="#24B8D2" stroke-width="0.72724" stroke-linecap="round" stroke-linejoin="round"/>
<path d="M93.5306 104.442C67.0048 58.2177 41.0763 111.859 40.0159 111.84L39.9095 117.386C39.7732 124.495 45.4253 130.36 52.5338 130.486L162.299 132.437C169.408 132.563 175.281 126.903 175.417 119.795L175.791 100.283C162.14 122.749 154.316 117.712 152.111 112.385C146.977 101.589 133.252 84.4313 119.423 102.175C105.594 119.919 96.3995 111.08 93.5306 104.442Z" fill="url(#paint3_linear_15_1296)"/>
<path d="M40.1507 111.812C41.2086 111.831 67.0763 58.2473 93.5374 104.421C96.3992 111.051 105.572 119.88 119.368 102.156C133.164 84.431 146.856 101.569 151.977 112.354C154.177 117.675 161.982 122.707 175.601 100.264" stroke="#7F7CFF" stroke-width="0.727241" stroke-linecap="round" stroke-linejoin="round"/>
<g filter="url(#filter1_i_15_1296)">
<rect width="130.384" height="63.8264" rx="13.6921" transform="matrix(0.999992 0.00412006 -0.00554003 0.999985 202.207 71.7061)" fill="url(#paint4_linear_15_1296)" fill-opacity="0.93"/>
</g>
<path d="M261.515 100.836L261.566 98.7312L267.936 98.8792C267.949 99.8647 267.809 100.791 267.517 101.659C267.237 102.527 266.805 103.293 266.223 103.957C265.652 104.608 264.95 105.115 264.116 105.478C263.282 105.84 262.336 106.009 261.277 105.985C260.28 105.961 259.361 105.774 258.52 105.422C257.691 105.07 256.97 104.585 256.357 103.968C255.756 103.35 255.294 102.619 254.97 101.774C254.658 100.929 254.515 100.008 254.539 99.0113C254.564 98.0143 254.758 97.1075 255.123 96.2908C255.501 95.4621 256.011 94.7596 256.653 94.1834C257.295 93.6071 258.045 93.1689 258.902 92.8686C259.76 92.5683 260.687 92.4297 261.684 92.4529C262.57 92.4735 263.361 92.615 264.056 92.8775C264.764 93.1402 265.384 93.4994 265.914 93.9551C266.458 94.3988 266.919 94.9268 267.298 95.5391L265.013 96.7976C264.707 96.224 264.269 95.7581 263.699 95.4C263.141 95.0299 262.45 94.8353 261.626 94.8162C260.85 94.7981 260.138 94.9602 259.489 95.3023C258.841 95.632 258.317 96.1187 257.92 96.7622C257.535 97.406 257.331 98.1771 257.309 99.0757C257.287 99.9619 257.452 100.748 257.805 101.433C258.158 102.107 258.644 102.635 259.262 103.019C259.893 103.403 260.609 103.604 261.409 103.623C261.938 103.635 262.414 103.579 262.836 103.453C263.258 103.315 263.62 103.12 263.922 102.869C264.236 102.617 264.501 102.328 264.719 102C264.936 101.673 265.105 101.314 265.226 100.922L261.515 100.836ZM272.254 97.3907L272.046 105.884L269.701 105.829L269.91 97.3363L272.254 97.3907ZM274.686 99.9412C274.529 99.7897 274.366 99.6751 274.195 99.5972C274.037 99.5074 273.835 99.4596 273.589 99.4538C273.294 99.447 273.04 99.5211 272.826 99.6763C272.613 99.8314 272.448 100.055 272.329 100.348C272.224 100.629 272.166 100.973 272.156 101.379L271.508 100.699C271.525 100.022 271.669 99.4277 271.94 98.9167C272.211 98.3935 272.56 97.9828 272.986 97.6848C273.413 97.3745 273.847 97.2245 274.29 97.2348C274.598 97.242 274.886 97.3041 275.154 97.4211C275.435 97.5385 275.658 97.71 275.825 97.9355L274.686 99.9412ZM276.157 101.73C276.178 100.844 276.401 100.073 276.823 99.4181C277.258 98.7632 277.831 98.2592 278.541 97.9062C279.264 97.5536 280.075 97.3877 280.974 97.4085C281.872 97.4294 282.668 97.6326 283.36 98.0182C284.065 98.404 284.613 98.934 285.003 99.6081C285.405 100.283 285.595 101.063 285.573 101.949C285.552 102.823 285.323 103.594 284.888 104.261C284.466 104.916 283.893 105.42 283.17 105.773C282.459 106.126 281.654 106.292 280.756 106.271C279.857 106.25 279.056 106.047 278.351 105.661C277.658 105.275 277.111 104.745 276.709 104.071C276.319 103.384 276.135 102.604 276.157 101.73ZM278.594 101.787C278.582 102.267 278.67 102.694 278.858 103.068C279.058 103.43 279.328 103.719 279.668 103.936C280.008 104.141 280.387 104.249 280.805 104.258C281.224 104.268 281.608 104.178 281.957 103.99C282.307 103.788 282.585 103.511 282.791 103.159C283.009 102.795 283.124 102.372 283.136 101.892C283.148 101.412 283.054 100.985 282.853 100.611C282.665 100.237 282.402 99.948 282.062 99.743C281.722 99.5381 281.343 99.4307 280.924 99.421C280.506 99.4113 280.122 99.5009 279.772 99.6898C279.423 99.8788 279.139 100.155 278.921 100.52C278.715 100.885 278.606 101.307 278.594 101.787ZM285.946 97.7088L288.494 97.768L290.243 102.519L292.775 97.2208L295.135 102.651L297.135 97.9687L299.664 98.0274L295.287 106.996L292.687 101.523L289.896 106.871L285.946 97.7088Z" fill="#303030"/>
<path d="M256.265 111.1L255.804 114.408L254.546 114.379L255.576 108.195L257.956 112.068L260.523 108.31L261.248 114.534L259.99 114.505L259.692 111.179L257.91 113.908L256.265 111.1ZM262.9 113.365C262.897 113.478 262.923 113.577 262.977 113.662C263.031 113.743 263.106 113.806 263.2 113.853C263.301 113.895 263.41 113.917 263.528 113.92C263.697 113.924 263.85 113.894 263.986 113.829C264.123 113.759 264.235 113.661 264.323 113.533C264.411 113.4 264.457 113.241 264.461 113.055L264.584 113.565C264.578 113.812 264.503 114.019 264.358 114.184C264.219 114.35 264.038 114.472 263.817 114.552C263.601 114.631 263.375 114.668 263.138 114.663C262.896 114.657 262.672 114.604 262.467 114.504C262.261 114.403 262.095 114.261 261.97 114.078C261.851 113.89 261.795 113.663 261.801 113.399C261.81 113.022 261.95 112.727 262.22 112.513C262.49 112.3 262.867 112.199 263.351 112.21C263.598 112.216 263.814 112.246 263.999 112.301C264.189 112.356 264.348 112.422 264.475 112.498C264.603 112.574 264.694 112.647 264.749 112.716L264.736 113.222C264.587 113.106 264.417 113.017 264.227 112.957C264.043 112.896 263.847 112.863 263.639 112.859C263.47 112.855 263.331 112.874 263.223 112.917C263.116 112.953 263.035 113.011 262.983 113.088C262.93 113.16 262.903 113.253 262.9 113.365ZM262.517 111.777L262.13 111.025C262.335 110.923 262.585 110.827 262.88 110.738C263.175 110.644 263.503 110.601 263.863 110.609C264.195 110.617 264.489 110.671 264.746 110.773C265.002 110.875 265.201 111.02 265.343 111.209C265.485 111.393 265.553 111.617 265.546 111.881L265.478 114.633L264.423 114.608L264.485 112.084C264.488 111.978 264.473 111.887 264.441 111.813C264.41 111.734 264.358 111.668 264.286 111.615C264.219 111.563 264.139 111.525 264.044 111.5C263.949 111.475 263.842 111.461 263.724 111.459C263.544 111.455 263.372 111.47 263.207 111.506C263.043 111.541 262.901 111.586 262.782 111.64C262.662 111.693 262.574 111.739 262.517 111.777ZM267.663 110.799L267.567 114.681L266.495 114.656L266.591 110.774L267.663 110.799ZM268.774 111.965C268.703 111.895 268.628 111.843 268.55 111.807C268.478 111.766 268.385 111.744 268.273 111.742C268.138 111.739 268.022 111.772 267.924 111.843C267.827 111.914 267.751 112.017 267.697 112.151C267.649 112.279 267.622 112.436 267.618 112.622L267.322 112.311C267.329 112.001 267.395 111.73 267.519 111.496C267.643 111.257 267.802 111.069 267.997 110.933C268.192 110.791 268.391 110.723 268.593 110.727C268.734 110.731 268.866 110.759 268.988 110.813C269.117 110.866 269.219 110.945 269.295 111.048L268.774 111.965ZM269.921 108.149L270.976 108.173L270.814 114.757L269.759 114.732L269.921 108.149ZM272.336 110.907L273.644 110.938L271.933 112.502L273.717 114.824L272.418 114.794L270.625 112.472L272.336 110.907ZM275.999 114.961C275.577 114.952 275.21 114.859 274.899 114.683C274.588 114.506 274.349 114.267 274.182 113.965C274.021 113.657 273.945 113.298 273.955 112.887C273.966 112.471 274.059 112.115 274.235 111.821C274.417 111.521 274.667 111.293 274.987 111.138C275.306 110.976 275.679 110.9 276.107 110.91C276.535 110.92 276.896 111.007 277.19 111.172C277.49 111.331 277.715 111.561 277.865 111.863C278.016 112.159 278.086 112.516 278.076 112.932C278.074 112.983 278.07 113.036 278.063 113.092C278.062 113.149 278.058 113.194 278.051 113.227L274.574 113.146L274.591 112.471L277.114 112.53L276.809 112.911C276.833 112.878 276.853 112.833 276.872 112.778C276.896 112.716 276.908 112.666 276.909 112.626C276.914 112.435 276.881 112.271 276.812 112.134C276.747 111.998 276.652 111.889 276.524 111.807C276.397 111.725 276.246 111.682 276.071 111.678C275.857 111.673 275.676 111.717 275.527 111.809C275.385 111.896 275.271 112.031 275.188 112.215C275.11 112.393 275.066 112.617 275.053 112.887C275.047 113.146 275.078 113.366 275.147 113.548C275.221 113.73 275.333 113.871 275.483 113.97C275.632 114.069 275.814 114.121 276.028 114.126C276.27 114.132 276.476 114.091 276.647 114.005C276.824 113.914 276.971 113.776 277.088 113.593L278.035 113.911C277.823 114.272 277.546 114.541 277.204 114.719C276.868 114.892 276.466 114.972 275.999 114.961ZM278.449 111.049L280.846 111.105L280.823 112.025L278.426 111.969L278.449 111.049ZM279.149 109.714L280.204 109.739L280.075 114.972L279.02 114.947L279.149 109.714ZM281.414 109.615C281.418 109.435 281.487 109.29 281.619 109.18C281.751 109.065 281.907 109.01 282.088 109.014C282.268 109.018 282.418 109.081 282.539 109.202C282.666 109.317 282.727 109.465 282.722 109.645C282.718 109.82 282.65 109.964 282.517 110.08C282.391 110.195 282.237 110.25 282.057 110.246C281.877 110.242 281.724 110.179 281.597 110.058C281.471 109.937 281.41 109.789 281.414 109.615ZM281.495 111.12L282.559 111.145L282.463 115.027L281.4 115.002L281.495 111.12ZM286.189 112.749C286.195 112.49 286.149 112.292 286.051 112.155C285.953 112.017 285.792 111.946 285.567 111.941C285.415 111.937 285.279 111.968 285.159 112.033C285.039 112.092 284.947 112.18 284.882 112.296C284.818 112.413 284.783 112.553 284.779 112.716L284.721 115.08L283.624 115.054L283.719 111.172L284.816 111.197L284.802 111.788C284.926 111.571 285.084 111.409 285.278 111.301C285.478 111.187 285.716 111.134 285.992 111.14C286.453 111.151 286.793 111.291 287.012 111.561C287.23 111.825 287.334 112.19 287.323 112.657L287.262 115.139L286.131 115.112L286.189 112.749ZM288.146 115.429L289.218 115.454C289.22 115.623 289.261 115.768 289.343 115.888C289.424 116.014 289.537 116.112 289.682 116.183C289.826 116.254 289.997 116.292 290.194 116.296C290.374 116.3 290.544 116.262 290.704 116.181C290.869 116.101 291.001 115.974 291.101 115.802C291.207 115.63 291.263 115.412 291.27 115.147L291.363 111.349L292.418 111.374L292.325 115.172C292.313 115.65 292.207 116.042 292.009 116.347C291.815 116.652 291.559 116.871 291.241 117.005C290.922 117.143 290.577 117.209 290.206 117.2C289.755 117.19 289.38 117.108 289.08 116.954C288.78 116.807 288.551 116.599 288.394 116.33C288.243 116.068 288.16 115.768 288.146 115.429ZM288.125 113.183C288.136 112.749 288.232 112.388 288.414 112.1C288.596 111.806 288.832 111.586 289.123 111.441C289.413 111.295 289.719 111.226 290.04 111.234C290.366 111.242 290.651 111.327 290.895 111.49C291.144 111.654 291.336 111.886 291.469 112.188C291.608 112.484 291.672 112.843 291.662 113.265C291.652 113.681 291.57 114.037 291.416 114.331C291.268 114.626 291.066 114.85 290.809 115.001C290.557 115.148 290.268 115.217 289.942 115.209C289.621 115.202 289.319 115.119 289.036 114.96C288.753 114.802 288.528 114.574 288.36 114.277C288.193 113.975 288.115 113.61 288.125 113.183ZM289.257 113.209C289.251 113.439 289.294 113.638 289.385 113.803C289.477 113.963 289.604 114.087 289.765 114.175C289.926 114.263 290.099 114.309 290.285 114.314C290.448 114.317 290.607 114.282 290.761 114.206C290.92 114.126 291.05 114.008 291.149 113.852C291.255 113.692 291.31 113.493 291.316 113.257C291.32 113.077 291.296 112.918 291.243 112.782C291.19 112.646 291.114 112.531 291.015 112.439C290.922 112.347 290.817 112.277 290.699 112.229C290.583 112.176 290.462 112.147 290.338 112.145C290.153 112.14 289.977 112.178 289.812 112.259C289.647 112.34 289.514 112.46 289.415 112.621C289.315 112.777 289.262 112.972 289.257 113.209ZM295.543 110.509L295.569 109.42L299.958 109.522L299.932 110.611L298.336 110.574L298.218 115.393L297.011 115.365L297.129 110.546L295.543 110.509ZM300.889 111.57L300.794 115.453L299.722 115.428L299.817 111.546L300.889 111.57ZM302.001 112.736C301.929 112.667 301.854 112.615 301.777 112.579C301.704 112.538 301.612 112.516 301.499 112.514C301.364 112.51 301.248 112.544 301.151 112.615C301.053 112.686 300.977 112.789 300.924 112.922C300.875 113.051 300.849 113.208 300.844 113.394L300.548 113.083C300.556 112.773 300.621 112.502 300.745 112.268C300.87 112.029 301.029 111.841 301.224 111.705C301.419 111.563 301.617 111.494 301.82 111.499C301.961 111.502 302.092 111.531 302.215 111.584C302.343 111.638 302.445 111.716 302.521 111.819L302.001 112.736ZM303.817 114.316C303.814 114.428 303.84 114.527 303.894 114.613C303.948 114.693 304.023 114.757 304.117 114.804C304.218 114.846 304.327 114.868 304.445 114.871C304.614 114.875 304.767 114.844 304.903 114.78C305.04 114.71 305.152 114.611 305.24 114.484C305.328 114.351 305.374 114.191 305.378 114.006L305.501 114.515C305.495 114.763 305.419 114.969 305.275 115.135C305.135 115.3 304.955 115.423 304.734 115.502C304.518 115.582 304.292 115.619 304.055 115.613C303.813 115.608 303.589 115.554 303.383 115.454C303.178 115.353 303.012 115.212 302.887 115.029C302.768 114.84 302.712 114.614 302.718 114.349C302.727 113.972 302.867 113.677 303.137 113.464C303.407 113.25 303.784 113.149 304.268 113.161C304.515 113.166 304.731 113.197 304.916 113.252C305.106 113.307 305.265 113.372 305.392 113.448C305.52 113.525 305.611 113.597 305.665 113.666L305.653 114.172C305.504 114.056 305.334 113.968 305.144 113.907C304.96 113.847 304.764 113.814 304.556 113.809C304.387 113.805 304.248 113.824 304.14 113.867C304.032 113.904 303.952 113.961 303.9 114.039C303.847 114.111 303.82 114.203 303.817 114.316ZM303.434 112.727L303.047 111.975C303.252 111.873 303.502 111.777 303.797 111.689C304.092 111.594 304.42 111.551 304.78 111.559C305.112 111.567 305.406 111.622 305.663 111.724C305.919 111.825 306.118 111.971 306.26 112.16C306.402 112.343 306.469 112.567 306.463 112.832L306.395 115.583L305.34 115.559L305.402 113.035C305.405 112.928 305.39 112.838 305.358 112.764C305.326 112.684 305.275 112.618 305.203 112.566C305.136 112.514 305.056 112.475 304.961 112.45C304.866 112.426 304.759 112.412 304.641 112.409C304.461 112.405 304.289 112.421 304.124 112.456C303.96 112.492 303.818 112.536 303.699 112.59C303.579 112.643 303.491 112.689 303.434 112.727ZM307.179 111.717L309.609 111.773L309.587 112.693L307.156 112.636L307.179 111.717ZM309.531 110.167C309.477 110.081 309.413 110.023 309.341 109.993C309.274 109.958 309.207 109.939 309.139 109.938C309.055 109.936 308.981 109.957 308.918 110C308.861 110.038 308.814 110.105 308.778 110.2C308.742 110.295 308.722 110.415 308.719 110.562L308.594 115.634L307.539 115.61L307.67 110.292C307.677 109.994 307.734 109.745 307.84 109.545C307.946 109.344 308.102 109.193 308.307 109.091C308.513 108.983 308.762 108.933 309.054 108.939C309.229 108.943 309.377 108.969 309.5 109.017C309.623 109.06 309.726 109.113 309.808 109.177C309.897 109.24 309.966 109.301 310.015 109.359L309.531 110.167ZM309.932 111.78L312.363 111.837L312.34 112.757L309.909 112.7L309.932 111.78ZM312.284 110.231C312.23 110.145 312.166 110.087 312.094 110.057C312.027 110.022 311.96 110.003 311.892 110.002C311.808 110 311.734 110.021 311.671 110.064C311.614 110.102 311.567 110.169 311.531 110.264C311.495 110.359 311.475 110.479 311.472 110.625L311.347 115.698L310.292 115.674L310.423 110.356C310.43 110.058 310.487 109.809 310.593 109.609C310.699 109.408 310.855 109.257 311.06 109.155C311.266 109.047 311.515 108.997 311.807 109.003C311.982 109.007 312.13 109.033 312.253 109.081C312.376 109.124 312.479 109.177 312.561 109.24C312.65 109.304 312.719 109.365 312.768 109.423L312.284 110.231ZM313 110.349C313.005 110.168 313.073 110.024 313.205 109.914C313.337 109.799 313.494 109.743 313.674 109.748C313.854 109.752 314.004 109.814 314.125 109.935C314.252 110.051 314.313 110.199 314.308 110.379C314.304 110.553 314.236 110.698 314.104 110.813C313.977 110.929 313.823 110.984 313.643 110.98C313.463 110.976 313.31 110.913 313.184 110.792C313.057 110.671 312.996 110.523 313 110.349ZM313.081 111.854L314.145 111.878L314.049 115.761L312.986 115.736L313.081 111.854ZM316.085 113.866C316.079 114.091 316.125 114.289 316.222 114.46C316.319 114.631 316.451 114.767 316.618 114.866C316.79 114.966 316.98 115.018 317.188 115.023C317.357 115.027 317.521 115.005 317.679 114.958C317.838 114.906 317.981 114.836 318.107 114.749C318.239 114.656 318.34 114.549 318.41 114.426L318.383 115.549C318.245 115.67 318.065 115.764 317.844 115.832C317.628 115.895 317.377 115.923 317.09 115.916C316.679 115.906 316.31 115.813 315.982 115.637C315.66 115.46 315.407 115.218 315.223 114.91C315.045 114.596 314.961 114.239 314.971 113.84C314.981 113.435 315.082 113.082 315.275 112.783C315.474 112.483 315.739 112.253 316.069 112.092C316.405 111.931 316.779 111.855 317.19 111.865C317.477 111.871 317.726 111.914 317.938 111.992C318.156 112.064 318.331 112.161 318.463 112.283L318.436 113.405C318.371 113.28 318.272 113.171 318.14 113.077C318.012 112.979 317.871 112.902 317.714 112.848C317.558 112.794 317.401 112.765 317.244 112.761C317.035 112.756 316.843 112.802 316.666 112.9C316.495 112.991 316.356 113.12 316.251 113.287C316.146 113.453 316.09 113.646 316.085 113.866Z" fill="#303030"/>
<ellipse cx="230.041" cy="104.087" rx="17.6906" ry="17.7275" transform="rotate(21.7327 230.041 104.087)" fill="#CFDDFF"/>
<g filter="url(#filter2_d_15_1296)">
<ellipse cx="230.042" cy="104.088" rx="9.18119" ry="9.20036" transform="rotate(21.7327 230.042 104.088)" fill="#2562FF"/>
<path d="M238.326 107.389C236.498 111.975 231.308 114.212 226.733 112.389C222.159 110.566 219.931 105.371 221.759 100.786C223.587 96.2005 228.777 93.9629 233.351 95.7863C237.926 97.6097 240.154 102.804 238.326 107.389Z" stroke="#CAD9FF" stroke-width="0.527677"/>
</g>
<path d="M133.387 148.66L131.896 296.426M268.811 149.911L267.32 297.677M202.14 149.295L200.649 297.061M336.87 150.539L335.379 298.306M166.722 148.968L165.231 296.734M302.84 150.225L301.349 297.991M235.475 149.603L233.984 297.369M370.899 150.854L369.408 298.62M104.041 270L403.361 272.765M104.679 206.799L403.999 209.563M104.355 238.845L403.675 241.609M105.001 174.753L404.322 177.518" stroke="#E4B5A8" stroke-width="0.411357"/>
<path d="M126 286.66L195.077 227.341L219.5 258.66L275 212.66L318.822 263.536L383 193.66" stroke="url(#paint5_linear_15_1296)" stroke-width="8" stroke-linecap="round"/>
<g filter="url(#filter3_d_15_1296)">
<ellipse cx="275.727" cy="213.401" rx="12.0979" ry="12.1232" transform="rotate(21.7327 275.727 213.401)" fill="white"/>
<path d="M285.107 217.14C283.035 222.337 277.155 224.868 271.979 222.805C266.802 220.741 264.275 214.859 266.347 209.662C268.418 204.465 274.298 201.934 279.475 203.998C284.652 206.061 287.179 211.943 285.107 217.14Z" stroke="#3DACB7" stroke-width="4"/>
</g>
<g filter="url(#filter4_d_15_1296)">
<ellipse cx="217.727" cy="259.401" rx="12.0979" ry="12.1232" transform="rotate(21.7327 217.727 259.401)" fill="white"/>
<path d="M227.107 263.14C225.035 268.337 219.155 270.868 213.979 268.805C208.802 266.741 206.275 260.859 208.347 255.662C210.418 250.465 216.298 247.934 221.475 249.998C226.652 252.061 229.179 257.943 227.107 263.14Z" stroke="#3D95CF" stroke-width="4"/>
</g>
<g filter="url(#filter5_d_15_1296)">
<ellipse cx="320.727" cy="259.401" rx="12.0979" ry="12.1232" transform="rotate(21.7327 320.727 259.401)" fill="white"/>
<path d="M330.107 263.14C328.035 268.337 322.155 270.868 316.979 268.805C311.802 266.741 309.275 260.859 311.347 255.662C313.418 250.465 319.298 247.934 324.475 249.998C329.652 252.061 332.179 257.943 330.107 263.14Z" stroke="#3DC39E" stroke-width="4"/>
</g>
<g filter="url(#filter6_d_15_1296)">
<ellipse cx="191.704" cy="228.378" rx="12.0803" ry="12.1055" transform="rotate(21.7327 191.704 228.378)" fill="white"/>
<path d="M201.068 232.111C199 237.299 193.13 239.826 187.962 237.766C182.794 235.706 180.272 229.834 182.34 224.646C184.408 219.458 190.278 216.931 195.446 218.991C200.614 221.051 203.136 226.923 201.068 232.111Z" stroke="#3C88DC" stroke-width="4"/>
</g>
<defs>
<filter id="filter0_i_15_1296" x="28.3973" y="55.2463" width="161.116" height="85.0169" filterUnits="userSpaceOnUse" color-interpolation-filters="sRGB">
<feFlood flood-opacity="0" result="BackgroundImageFix"/>
<feBlend mode="normal" in="SourceGraphic" in2="BackgroundImageFix" result="shape"/>
<feColorMatrix in="SourceAlpha" type="matrix" values="0 0 0 0 0 0 0 0 0 0 0 0 0 0 0 0 0 0 127 0" result="hardAlpha"/>
<feOffset dx="-1.02691" dy="1.02691"/>
<feComposite in2="hardAlpha" operator="arithmetic" k2="-1" k3="1"/>
<feColorMatrix type="matrix" values="0 0 0 0 1 0 0 0 0 1 0 0 0 0 1 0 0 0 1 0"/>
<feBlend mode="normal" in2="shape" result="effect1_innerShadow_15_1296"/>
</filter>
<filter id="filter1_i_15_1296" x="201.929" y="71.7624" width="130.585" height="64.25" filterUnits="userSpaceOnUse" color-interpolation-filters="sRGB">
<feFlood flood-opacity="0" result="BackgroundImageFix"/>
<feBlend mode="normal" in="SourceGraphic" in2="BackgroundImageFix" result="shape"/>
<feColorMatrix in="SourceAlpha" type="matrix" values="0 0 0 0 0 0 0 0 0 0 0 0 0 0 0 0 0 0 127 0" result="hardAlpha"/>
<feOffset dx="-1.02691" dy="1.02691"/>
<feComposite in2="hardAlpha" operator="arithmetic" k2="-1" k3="1"/>
<feColorMatrix type="matrix" values="0 0 0 0 1 0 0 0 0 1 0 0 0 0 1 0 0 0 1 0"/>
<feBlend mode="normal" in2="shape" result="effect1_innerShadow_15_1296"/>
</filter>
<filter id="filter2_d_15_1296" x="219.273" y="94.8874" width="24.7047" height="25.2602" filterUnits="userSpaceOnUse" color-interpolation-filters="sRGB">
<feFlood flood-opacity="0" result="BackgroundImageFix"/>
<feColorMatrix in="SourceAlpha" type="matrix" values="0 0 0 0 0 0 0 0 0 0 0 0 0 0 0 0 0 0 127 0" result="hardAlpha"/>
<feOffset dx="1.58303" dy="3.69374"/>
<feGaussianBlur stdDeviation="1.58303"/>
<feComposite in2="hardAlpha" operator="out"/>
<feColorMatrix type="matrix" values="0 0 0 0 0.66125 0 0 0 0 0.717563 0 0 0 0 0.8625 0 0 0 1 0"/>
<feBlend mode="normal" in2="BackgroundImageFix" result="effect1_dropShadow_15_1296"/>
<feBlend mode="normal" in="SourceGraphic" in2="effect1_dropShadow_15_1296" result="shape"/>
</filter>
<filter id="filter3_d_15_1296" x="261.831" y="201.278" width="31.3726" height="32.0062" filterUnits="userSpaceOnUse" color-interpolation-filters="sRGB">
<feFlood flood-opacity="0" result="BackgroundImageFix"/>
<feColorMatrix in="SourceAlpha" type="matrix" values="0 0 0 0 0 0 0 0 0 0 0 0 0 0 0 0 0 0 127 0" result="hardAlpha"/>
<feOffset dx="1.79086" dy="4.17866"/>
<feGaussianBlur stdDeviation="1.79086"/>
<feComposite in2="hardAlpha" operator="out"/>
<feColorMatrix type="matrix" values="0 0 0 0 0.875 0 0 0 0 0.73125 0 0 0 0 0.707292 0 0 0 1 0"/>
<feBlend mode="multiply" in2="BackgroundImageFix" result="effect1_dropShadow_15_1296"/>
<feBlend mode="normal" in="SourceGraphic" in2="effect1_dropShadow_15_1296" result="shape"/>
</filter>
<filter id="filter4_d_15_1296" x="203.831" y="247.278" width="31.3726" height="32.0063" filterUnits="userSpaceOnUse" color-interpolation-filters="sRGB">
<feFlood flood-opacity="0" result="BackgroundImageFix"/>
<feColorMatrix in="SourceAlpha" type="matrix" values="0 0 0 0 0 0 0 0 0 0 0 0 0 0 0 0 0 0 127 0" result="hardAlpha"/>
<feOffset dx="1.79086" dy="4.17866"/>
<feGaussianBlur stdDeviation="1.79086"/>
<feComposite in2="hardAlpha" operator="out"/>
<feColorMatrix type="matrix" values="0 0 0 0 0.875 0 0 0 0 0.73125 0 0 0 0 0.707292 0 0 0 1 0"/>
<feBlend mode="multiply" in2="BackgroundImageFix" result="effect1_dropShadow_15_1296"/>
<feBlend mode="normal" in="SourceGraphic" in2="effect1_dropShadow_15_1296" result="shape"/>
</filter>
<filter id="filter5_d_15_1296" x="306.831" y="247.278" width="31.3726" height="32.0063" filterUnits="userSpaceOnUse" color-interpolation-filters="sRGB">
<feFlood flood-opacity="0" result="BackgroundImageFix"/>
<feColorMatrix in="SourceAlpha" type="matrix" values="0 0 0 0 0 0 0 0 0 0 0 0 0 0 0 0 0 0 127 0" result="hardAlpha"/>
<feOffset dx="1.79086" dy="4.17866"/>
<feGaussianBlur stdDeviation="1.79086"/>
<feComposite in2="hardAlpha" operator="out"/>
<feColorMatrix type="matrix" values="0 0 0 0 0.875 0 0 0 0 0.73125 0 0 0 0 0.707292 0 0 0 1 0"/>
<feBlend mode="multiply" in2="BackgroundImageFix" result="effect1_dropShadow_15_1296"/>
<feBlend mode="normal" in="SourceGraphic" in2="effect1_dropShadow_15_1296" result="shape"/>
</filter>
<filter id="filter6_d_15_1296" x="177.826" y="216.273" width="31.3374" height="31.971" filterUnits="userSpaceOnUse" color-interpolation-filters="sRGB">
<feFlood flood-opacity="0" result="BackgroundImageFix"/>
<feColorMatrix in="SourceAlpha" type="matrix" values="0 0 0 0 0 0 0 0 0 0 0 0 0 0 0 0 0 0 127 0" result="hardAlpha"/>
<feOffset dx="1.79086" dy="4.17866"/>
<feGaussianBlur stdDeviation="1.79086"/>
<feComposite in2="hardAlpha" operator="out"/>
<feColorMatrix type="matrix" values="0 0 0 0 0.875 0 0 0 0 0.73125 0 0 0 0 0.707292 0 0 0 1 0"/>
<feBlend mode="multiply" in2="BackgroundImageFix" result="effect1_dropShadow_15_1296"/>
<feBlend mode="normal" in="SourceGraphic" in2="effect1_dropShadow_15_1296" result="shape"/>
</filter>
<linearGradient id="paint0_linear_15_1296" x1="146.232" y1="30.4321" x2="11.7943" y2="1.06736" gradientUnits="userSpaceOnUse">
<stop stop-color="#F4F4F4"/>
<stop offset="0.421875" stop-color="#F4F4F4"/>
<stop offset="1" stop-color="white"/>
</linearGradient>
<linearGradient id="paint1_linear_15_1296" x1="108.885" y1="69.0444" x2="108.458" y2="137.062" gradientUnits="userSpaceOnUse">
<stop stop-color="#DADADA"/>
<stop offset="1" stop-color="white" stop-opacity="0"/>
</linearGradient>
<linearGradient id="paint2_linear_15_1296" x1="107.962" y1="97.666" x2="107.445" y2="122.425" gradientUnits="userSpaceOnUse">
<stop stop-color="#65D2E5"/>
<stop offset="1" stop-color="white" stop-opacity="0"/>
</linearGradient>
<linearGradient id="paint3_linear_15_1296" x1="108.282" y1="86.3294" x2="107.48" y2="131.463" gradientUnits="userSpaceOnUse">
<stop stop-color="#6865E5"/>
<stop offset="1" stop-color="white" stop-opacity="0"/>
</linearGradient>
<linearGradient id="paint4_linear_15_1296" x1="118.88" y1="23.2751" x2="10.2306" y2="-1.95031" gradientUnits="userSpaceOnUse">
<stop stop-color="#F4F4F4"/>
<stop offset="0.421875" stop-color="#F4F4F4"/>
<stop offset="1" stop-color="white"/>
</linearGradient>
<linearGradient id="paint5_linear_15_1296" x1="342.131" y1="186.622" x2="130.79" y2="246.624" gradientUnits="userSpaceOnUse">
<stop stop-color="#3DCF92"/>
<stop offset="1" stop-color="#3D67FF"/>
</linearGradient>
</defs>
</svg>
