<svg width="313" height="214" viewBox="0 0 313 214" fill="none" xmlns="http://www.w3.org/2000/svg">
<rect x="17.9271" y="0.660156" width="292.359" height="142.519" rx="8.78541" fill="#CDD5EA"/>
<g filter="url(#filter0_d_15_1344)">
<rect x="31.5933" y="27.5049" width="265.027" height="152.281" rx="8.78541" fill="white"/>
</g>
<rect x="224.872" y="13.3506" width="61.0098" height="4.39271" rx="2.19635" fill="white"/>
<rect x="62.3422" y="68.0146" width="93.7111" height="5.36886" rx="2.68443" fill="#E7E7E7"/>
<rect x="230.729" y="69.9668" width="38.5582" height="5.85694" rx="2.92847" fill="#353535"/>
<rect x="62.3422" y="58.7412" width="93.7111" height="5.85694" rx="2.92847" fill="#E7E7E7"/>
<rect x="230.729" y="58.7412" width="38.5582" height="5.85694" rx="2.92847" fill="#E7E7E7"/>
<rect x="62.3422" y="76.8008" width="93.7111" height="5.85694" rx="2.92847" fill="#E7E7E7"/>
<rect x="230.729" y="81.6816" width="38.5582" height="5.85694" rx="2.92847" fill="#E7E7E7"/>
<rect x="62.3422" y="86.0742" width="53.2006" height="5.36886" rx="2.68443" fill="#292929"/>
<rect x="230.729" y="93.3955" width="21.9635" height="5.85694" rx="2.92847" fill="#E7E7E7"/>
<circle cx="36.9621" cy="15.7902" r="4.39271" fill="#FE5151"/>
<circle cx="49.1641" cy="15.7902" r="4.39271" fill="#FFAC2F"/>
<circle cx="61.3661" cy="15.7902" r="4.39271" fill="#3FD28C"/>
<line x1="188.295" y1="121.15" x2="274.854" y2="121.15" stroke="#F1F1F1" stroke-width="0.488079"/>
<line x1="187.058" y1="137.87" x2="273.617" y2="137.87" stroke="#F1F1F1" stroke-width="0.488079"/>
<line x1="187.058" y1="112.788" x2="273.617" y2="112.788" stroke="#F1F1F1" stroke-width="0.488079"/>
<line x1="187.058" y1="129.51" x2="273.617" y2="129.51" stroke="#F1F1F1" stroke-width="0.488079"/>
<line x1="187.058" y1="104.428" x2="273.617" y2="104.428" stroke="#F1F1F1" stroke-width="0.488079"/>
<line x1="193.485" y1="96.3118" x2="193.485" y2="142.817" stroke="#F1F1F1" stroke-width="0.488079"/>
<line x1="223.162" y1="96.3118" x2="223.162" y2="142.817" stroke="#F1F1F1" stroke-width="0.488079"/>
<line x1="252.838" y1="96.3118" x2="252.838" y2="142.817" stroke="#F1F1F1" stroke-width="0.488079"/>
<line x1="203.378" y1="95.7891" x2="203.378" y2="142.295" stroke="#F1F1F1" stroke-width="0.488079"/>
<line x1="233.056" y1="95.7891" x2="233.056" y2="142.295" stroke="#F1F1F1" stroke-width="0.488079"/>
<line x1="262.733" y1="95.7891" x2="262.733" y2="142.295" stroke="#F1F1F1" stroke-width="0.488079"/>
<line x1="213.269" y1="95.7891" x2="213.269" y2="142.295" stroke="#F1F1F1" stroke-width="0.488079"/>
<line x1="242.947" y1="95.7891" x2="242.947" y2="142.295" stroke="#F1F1F1" stroke-width="0.488079"/>
<line x1="272.624" y1="95.7891" x2="272.624" y2="142.295" stroke="#F1F1F1" stroke-width="0.488079"/>
<path d="M232.749 125.754C208.387 117.011 192.278 134.012 186.538 144.774C186.201 145.407 186.673 146.147 187.39 146.147H274.061C274.595 146.147 275.028 145.738 275.031 145.204C275.058 138.763 274.85 101.499 266.378 101.499C257.105 101.499 258.175 134.879 232.749 125.754Z" fill="url(#paint0_linear_15_1344)"/>
<path d="M179.455 91.6602V153.186H282.804" stroke="#2562FF"/>
<circle cx="215.374" cy="121.266" r="10.0056" fill="white"/>
<ellipse cx="215.374" cy="121.511" rx="6.58906" ry="6.8331" fill="#5C5CE9"/>
<rect x="148.925" y="119.66" width="7.07524" height="31.9176" rx="3.53762" fill="#EEEEEE"/>
<rect x="148.925" y="133.787" width="7.07524" height="17.7901" rx="3.53762" fill="#5C5CE9"/>
<rect x="134.437" y="119.66" width="7.07524" height="31.9176" rx="3.53762" fill="#EEEEEE"/>
<rect x="134.437" y="141.113" width="7.07524" height="10.4648" rx="3.53762" fill="#5C5CE9"/>
<rect x="119.949" y="119.66" width="7.07524" height="31.9176" rx="3.53762" fill="#EEEEEE"/>
<rect x="119.949" y="126.986" width="7.07524" height="24.5922" rx="3.53762" fill="#5C5CE9"/>
<rect x="105.461" y="119.66" width="7.07524" height="31.9176" rx="3.53762" fill="#EEEEEE"/>
<rect x="105.461" y="130.125" width="7.07524" height="21.4528" rx="3.53762" fill="#5C5CE9"/>
<rect x="90.9745" y="119.66" width="7.07524" height="31.9176" rx="3.53762" fill="#EEEEEE"/>
<rect x="90.9745" y="133.787" width="7.07524" height="17.7901" rx="3.53762" fill="#5C5CE9"/>
<rect x="76.4879" y="119.66" width="7.07524" height="31.9176" rx="3.53762" fill="#EEEEEE"/>
<rect x="76.4879" y="125.416" width="7.07524" height="26.1619" rx="3.53762" fill="#5C5CE9"/>
<rect x="62" y="119.66" width="7.07524" height="31.9176" rx="3.53762" fill="#EEEEEE"/>
<rect x="62" y="138.496" width="7.07524" height="13.081" rx="3.53762" fill="#5C5CE9"/>
<defs>
<filter id="filter0_d_15_1344" x="0.356236" y="14.3268" width="311.882" height="199.136" filterUnits="userSpaceOnUse" color-interpolation-filters="sRGB">
<feFlood flood-opacity="0" result="BackgroundImageFix"/>
<feColorMatrix in="SourceAlpha" type="matrix" values="0 0 0 0 0 0 0 0 0 0 0 0 0 0 0 0 0 0 127 0" result="hardAlpha"/>
<feOffset dx="-7.80926" dy="10.2496"/>
<feGaussianBlur stdDeviation="11.7139"/>
<feComposite in2="hardAlpha" operator="out"/>
<feColorMatrix type="matrix" values="0 0 0 0 0.941667 0 0 0 0 0.900905 0 0 0 0 0.898507 0 0 0 0.25 0"/>
<feBlend mode="multiply" in2="BackgroundImageFix" result="effect1_dropShadow_15_1344"/>
<feBlend mode="normal" in="SourceGraphic" in2="effect1_dropShadow_15_1344" result="shape"/>
</filter>
<linearGradient id="paint0_linear_15_1344" x1="230.434" y1="92.2255" x2="230.434" y2="146.147" gradientUnits="userSpaceOnUse">
<stop stop-color="#FFE279"/>
<stop offset="1" stop-color="#FFDC60"/>
</linearGradient>
</defs>
</svg>
