<svg width="105" height="106" viewBox="0 0 105 106" fill="none" xmlns="http://www.w3.org/2000/svg">
<circle cx="52.5" cy="53.1602" r="52.5" fill="#292930"/>
<path d="M64.1667 35.2625C63.7799 35.2625 63.409 35.4027 63.1355 35.6522C62.862 35.9018 62.7083 36.2403 62.7083 36.5933V41.9167H42.2917V36.5933C42.2917 36.2403 42.138 35.9018 41.8645 35.6522C41.591 35.4027 41.2201 35.2625 40.8333 35.2625C40.4466 35.2625 40.0756 35.4027 39.8021 35.6522C39.5286 35.9018 39.375 36.2403 39.375 36.5933V68.5339C39.375 68.8868 39.5286 69.2253 39.8021 69.4749C40.0756 69.7245 40.4466 69.8647 40.8333 69.8647C41.2201 69.8647 41.591 69.7245 41.8645 69.4749C42.138 69.2253 42.2917 68.8868 42.2917 68.5339V63.2104H62.7083V68.5339C62.7083 68.8868 62.862 69.2253 63.1355 69.4749C63.409 69.7245 63.7799 69.8647 64.1667 69.8647C64.5534 69.8647 64.9244 69.7245 65.1979 69.4749C65.4714 69.2253 65.625 68.8868 65.625 68.5339V36.5933C65.625 36.2403 65.4714 35.9018 65.1979 35.6522C64.9244 35.4027 64.5534 35.2625 64.1667 35.2625ZM62.7083 44.5784V51.2327H42.2917V44.5784H62.7083ZM42.2917 60.5487V53.8944H62.7083V60.5487H42.2917Z" fill="#8A8A8A"/>
</svg>
